<svg xmlns="http://www.w3.org/2000/svg" data-name="Layer 1" viewBox="0 0 3287.07 1764.66"><path fill="#FFE7BF" d="M3295.59,1884a607.22,607.22,0,0,0,27.88-182.41c0-277.33-185.83-511.24-439.75-584a369.43,369.43,0,0,0,27.93-141.33c0-204.66-165.91-370.57-370.57-370.57a370.82,370.82,0,0,0-101.45,14.06c-137-220.43-381.33-367.22-660-367.22-360.32,0-663.29,245.43-751,578.22-417.6,12.88-752.19,355.41-752.19,776.13a774.63,774.63,0,0,0,51,277.17Z" transform="translate(-182.4 -119.34)"/><path fill="#3d7e9c" d="M1090.65 1371.07c-155.45 0-286.54 104.26-327.18 246.66h654.37C1377.19 1475.32 1246.1 1371.07 1090.65 1371.07zM1983.26 1371.07c-155.45 0-286.54 104.26-327.18 246.66h654.37C2269.8 1475.32 2138.71 1371.07 1983.26 1371.07z" transform="translate(-182.4 -119.34)"/><path fill="#3d7e9c" d="M1558,1265.4c-222,0-409.29,148.92-467.35,352.33h934.69C1967.29,1414.32,1780,1265.4,1558,1265.4Z" transform="translate(-182.4 -119.34)"/><path fill="#3ac5c9" d="M3051.17,1475.66c-118.35,70.59-261.53,48.61-261.53,48.61l428.57-255.63S3169.52,1405.07,3051.17,1475.66Z" transform="translate(-182.4 -119.34)"/><path fill="#49e1e6" d="M3218.22,1268.64l-428.57,255.63s48.69-136.43,167-207S3218.22,1268.64,3218.22,1268.64Z" transform="translate(-182.4 -119.34)"/><path fill="#3ac5c9" d="M2957.3,1313.37c-41.64,131.36-163.31,210-163.31,210l150.79-475.7S2998.94,1182,2957.3,1313.37Z" transform="translate(-182.4 -119.34)"/><path fill="#49e1e6" d="M2944.78,1047.66,2794,1523.35s-54.16-134.36-12.52-265.72S2944.78,1047.66,2944.78,1047.66Z" transform="translate(-182.4 -119.34)"/><path fill="#bcf0f2" d="M2558.95 1495.81a152.51 152.51 0 00-146.6 110.52h293.21A152.51 152.51 0 002558.95 1495.81zM2958.91 1495.81a152.51 152.51 0 00-146.6 110.52h293.21A152.51 152.51 0 002958.91 1495.81z" transform="translate(-182.4 -119.34)"/><path fill="#bcf0f2" d="M2768.36,1448.46c-99.49,0-183.4,66.73-209.41,157.87h418.82C2951.75,1515.19,2867.85,1448.46,2768.36,1448.46Z" transform="translate(-182.4 -119.34)"/><path fill="#458fb0" d="M2638.1,1709.86H961.9a56.09,56.09,0,0,1,0-112.18H2638.1a56.09,56.09,0,0,1,0,112.18Z" transform="translate(-182.4 -119.34)"/><path fill="#d0f1f2" d="M409.94 205.19c-108.11 0-199.27 72.5-227.54 171.54H637.48C609.22 277.7 518 205.19 409.94 205.19zM1030.7 205.19c-108.11 0-199.27 72.5-227.54 171.54h455.08C1230 277.7 1138.81 205.19 1030.7 205.19z" transform="translate(-182.4 -119.34)"/><path fill="#d0f1f2" d="M735,131.71c-154.42,0-284.64,103.57-325,245h650C1019.6,235.27,889.37,131.71,735,131.71Z" transform="translate(-182.4 -119.34)"/><path fill="#fff" d="M446.45 352.12a146.22 146.22 0 00-140.56 106H587A146.22 146.22 0 00446.45 352.12zM829.91 352.12a146.22 146.22 0 00-140.56 106H970.46A146.22 146.22 0 00829.91 352.12z" transform="translate(-182.4 -119.34)"/><path fill="#fff" d="M647.22,306.72c-95.39,0-175.83,64-200.77,151.36H848C823,370.7,742.61,306.72,647.22,306.72Z" transform="translate(-182.4 -119.34)"/><path fill="#d0f1f2" d="M3042 472.65a119.27 119.27 0 00-114.65 86.44h229.31A119.27 119.27 0 003042 472.65zM3354.82 472.65a119.27 119.27 0 00-114.65 86.44h229.31A119.27 119.27 0 003354.82 472.65z" transform="translate(-182.4 -119.34)"/><path fill="#d0f1f2" d="M3205.8,435.62A170.36,170.36,0,0,0,3042,559.09h327.54A170.36,170.36,0,0,0,3205.8,435.62Z" transform="translate(-182.4 -119.34)"/><path fill="#fff" d="M1339.26,1012.81s-98.33-33.44-107.21-58,88.31-3.37,128.92,44.52Z" transform="translate(-182.4 -119.34)"/><path fill="#292b3b" d="M1314.19 1011.27c-11.64-13.78 23.43-26.75 34.73-41.41 247.71 258.74-148.66 474.67-194.79 99-7.06-57.47-4-39.12 33.7-50 3.87-5.38 2.75-5.14 0 0 37.68-10.92 46.51 3.37 46.46 40.18C1234 1299.58 1486.09 1214.78 1314.19 1011.27zM1391 1653.77H1199.79c-7-51.18-17.34-107.13-31-168.24 55.35-14.22 105.66-51.21 161.67-62.67C1359.33 1500.47 1384.86 1581.14 1391 1653.77z" transform="translate(-182.4 -119.34)"/><path fill="#feb0af" d="M1145.75,1515.66c26.06-11.45,54.12-18.94,120.67-24.28l1.35-.11c49.08-3.85,79.58-55.17,58.91-99.85-83.92-181.36-101.12-280.79-94.32-341.23,4-35.25-11.05-69.9-40-90.38l-11.27-8c-52.4-37.21-125.9-6.49-135.76,57.06a521.63,521.63,0,0,0-6,72.73C1037.56,1211.09,1069.8,1347,1145.75,1515.66Z" transform="translate(-182.4 -119.34)"/><path fill="#fff" d="M1084.83,853.42c24.87,55.13,83.43,82.5,117.12,67.3s29.75-67.21,4.88-122.34-64.84-70.87-98.53-55.67S1060,798.29,1084.83,853.42Z" transform="translate(-182.4 -119.34)"/><path fill="#fff" d="M1094.65,855l62.94-8.52c1.17,8.62,10.86,90.74,8.81,121.9-2,9.65-17.55,14.62-34.82,11.11-15.52-3.16-27-12.1-27.77-20.88h-.07C1105,939.94,1098.72,885.15,1094.65,855Z" transform="translate(-182.4 -119.34)"/><path fill="#1a1c2e" d="M1212.85 860.85c-6.37-.61-13.33-1.07-18.61 2.54-1.88 1.29-3.43 3-5.4 4.18-1.37.79-2.9 1.27-4.29 2-3.09 1.64-5.34 4.45-7.51 7.19-3.07 3.88-10.38 14.85-1.19 16.31a10.26 10.26 0 006.17-1.22c6.31-3.21 9.92-10.24 16.1-13.7a34.23 34.23 0 013.47-1.61c3.79-1.6 7.59-3.19 11.52-4.41a17.75 17.75 0 005.1-2.09 5.09 5.09 0 002.38-4.68C1220.07 862.17 1216.06 861.15 1212.85 860.85zM1091.48 867.74s18.2-2.75 9.1-21.23-11.87-39.16-5.93-39.16 19.17 7.45 23.3-6.62 10.75-3.31 22.34-8.27 57.94-12.61 62.06-38.57-3.15-39.19-16.06-35.06-7.67-6.09-21.46-3.87-14.74 8.93-34.16 12.14-71.28 20.23-64.77 48.56c0 0-22.4 11.83-13.3 35S1080 881.58 1091.48 867.74z" transform="translate(-182.4 -119.34)"/><path fill="#fff" d="M1068.41,879.51c5.79,12.83,25.93,23.5,35.23,19.31s6.92-15.64,1.14-28.48-18.74-21.44-28-17.25S1062.62,866.68,1068.41,879.51Z" transform="translate(-182.4 -119.34)"/><path fill="#1a1c2e" d="M1109,880.65s-7.91-1.76-1.51,8.95,46.73,45.72,86.13,41.69,38.74-41.66,37.51-49.18-5-11.16-9.57,6.23-21.21,31.19-39.4,30.18-50.16-17-59.31-24.21A81.11,81.11,0,0,1,1109,880.65Z" transform="translate(-182.4 -119.34)"/><path fill="#292b3b" d="M1022.61 1078.45c.41-27.27-4-41.88-.69-63.12 7.81-50.32 30.46-81.14 76-72.88-2 97.84 212.46 648.76 211.08 648.87-66.55 5.33-104.4 16.89-130.47 28.34C1102.57 1451 1020.75 1208 1022.61 1078.45zM1167.56 936.43A86.11 86.11 0 011202.29 951l11.27 8c28.9 20.48 43.91 55.13 40 90.38-8 70.67-14.7 156.49 76 348.08C1266.28 1379.55 1165.59 1034.27 1167.56 936.43z" transform="translate(-182.4 -119.34)"/><path fill="#fff" d="M1047.85,1365.6s98.66-32.47,120.56-18.16-68.5,55.84-129.75,42Z" transform="translate(-182.4 -119.34)"/><path fill="#292b3b" d="M1064.52,1351.17c-3.84,15.34-7.72,32.05-11.52,47.51-268.73-83-310.85-297.44-30.25-415.59,57.87-24.37,73,58.26,27.33,73.79C784.79,1147,891,1267.65,1064.52,1351.17Z" transform="translate(-182.4 -119.34)"/><circle cx="970.84" cy="925.53" r="6.26" fill="#292b3b"/><circle cx="984.29" cy="978.79" r="6.26" fill="#292b3b"/><circle cx="998.33" cy="1028.69" r="6.26" fill="#292b3b"/><line x1="524.38" x2="524.38" y1="1503.82" y2="1256.89" fill="none" stroke="#3b3e54" stroke-linecap="round" stroke-linejoin="round" stroke-width="9"/><line x1="524.38" x2="553.54" y1="1438.25" y2="1409.09" fill="none" stroke="#3b3e54" stroke-linecap="round" stroke-linejoin="round" stroke-width="9"/><line x1="524.38" x2="494.15" y1="1409.16" y2="1378.93" fill="none" stroke="#3b3e54" stroke-linecap="round" stroke-linejoin="round" stroke-width="9"/><line x1="524.38" x2="505.63" y1="1329.19" y2="1310.44" fill="none" stroke="#3b3e54" stroke-linecap="round" stroke-linejoin="round" stroke-width="9"/><path fill="#2f7d80" d="M706.78,1287.11v134.07s28-30,28-67S706.78,1287.11,706.78,1287.11Z" transform="translate(-182.4 -119.34)"/><path fill="#369094" d="M678.81,1354.14c0,37,28,67,28,67V1287.11S678.81,1317.12,678.81,1354.14Z" transform="translate(-182.4 -119.34)"/><path fill="#2f7d80" d="M682.92,1504.64l-94.34-94.34s1.44,40.8,27.49,66.85S682.92,1504.64,682.92,1504.64Z" transform="translate(-182.4 -119.34)"/><path fill="#369094" d="M655.43,1437.79c-26.05-26.05-66.85-27.49-66.85-27.49l94.34,94.34S681.48,1463.84,655.43,1437.79Z" transform="translate(-182.4 -119.34)"/><line x1="524.38" x2="538.84" y1="1357.3" y2="1342.84" fill="none" stroke="#3b3e54" stroke-linecap="round" stroke-linejoin="round" stroke-width="9"/><path fill="#2f7d80" d="M813.62,1369.81l-94.34,94.34s40.8-1.44,66.85-27.49S813.62,1369.81,813.62,1369.81Z" transform="translate(-182.4 -119.34)"/><path fill="#369094" d="M746.76,1397.3c-26.05,26.05-27.49,66.85-27.49,66.85l94.34-94.34S772.82,1371.25,746.76,1397.3Z" transform="translate(-182.4 -119.34)"/><path fill="#fff" d="M2067.48 978a29.93 29.93 0 0029.93-29.93A29.93 29.93 0 002127.34 978a29.93 29.93 0 00-29.93 29.93A29.93 29.93 0 002067.48 978zM684.08 1167.24A29.93 29.93 0 00714 1137.31a29.93 29.93 0 0029.93 29.93A29.93 29.93 0 00714 1197.17 29.93 29.93 0 00684.08 1167.24z" transform="translate(-182.4 -119.34)"/><circle cx="1617.6" cy="409.99" r="343.37" fill="#3d7e9c"/><path fill="#fff" d="M2293.89,817.55s43.77-86.54,33.62-108.76-61.13,55.44-56.94,113.91Z" transform="translate(-182.4 -119.34)"/><path fill="#ffc4c2" d="M2309.39,824c6.66-15-29.41-14.85-43-23-130.2,281.24,57.6,431,295.2,230,36.34-30.75,18.82-35.77-2.95-55.66,3.45-6.39,3.68-6.26,0,0-21.77-19.89-28.73-26.09-60.26,5.32C2292.22,1186,2237.82,985.61,2309.39,824Z" transform="translate(-182.4 -119.34)"/><path fill="#292b3b" d="M2530.53,1476.71c-29.49,55.08-52,114.6-68.67,177.06H2333.58c6.27-96.15,21.9-181.83,51.15-247Q2457.85,1441.28,2530.53,1476.71Z" transform="translate(-182.4 -119.34)"/><path fill="#3b3e54" d="M2566.8,1653.77H2438.55c-11.67-75.42-17.79-158.7-18.9-252.51q81.58,10.84,162.9,23.76C2571.45,1508.87,2566,1584.5,2566.8,1653.77Z" transform="translate(-182.4 -119.34)"/><path fill="#ff9f9c" d="M2580.11,1508.06c-26-10.26-63.46-20.2-128.86-23-44.44-1.88-79.31-.32-106.61,3.33,114.4-245.51,134.23-367.87,123.86-436.81-5.16-34.39,8.28-68.89,35.84-90l10.75-8.27c50-38.37,123.11-11,135.09,50.94a511.41,511.41,0,0,1,8.49,71C2665.23,1202.1,2648.36,1340,2580.11,1508.06Z" transform="translate(-182.4 -119.34)"/><path fill="#fff" d="M2305.22,1325.55s-89.58-48.42-113.19-38.41,56.43,65.75,117.93,63Z" transform="translate(-182.4 -119.34)"/><path fill="#ffc4c2" d="M2292.23,1315.74c-7,17.42-14,34.48-21.9,50.71,317.92,22.2,399.43-43.19,378-336.89-3.27-44.93-13.24-49.7-51.75-39.34-29,7.8-28.1,24-24.48,64C2595.77,1316,2581.92,1300.55,2292.23,1315.74Z" transform="translate(-182.4 -119.34)"/><path fill="#fff" d="M2601.17,847.55c-21.45,52.7-75.55,80.49-107.75,67.38s-30.33-62.14-8.88-114.84,58.47-68.9,90.68-55.79S2622.62,794.84,2601.17,847.55Z" transform="translate(-182.4 -119.34)"/><path fill="#1a1c2e" d="M2622.48,817.09s2.6-38.29-18.84-61.24-73.2-41.56-103.22.68c0,0-18.57,32,21.87,51.1s40.19-5.54,54,22,37.43,18.08,39.73,24.13Z" transform="translate(-182.4 -119.34)"/><path fill="#186587" d="M2608.14,860.59s-7.48-97.08-107.72-104c0,0,.11-21,27.27-31.39s78.23-14.8,138.91,34.78c0,0,15.67,22.08-5.12,26.58s-19.3,8.2-20,17.82S2640.83,873.38,2608.14,860.59Z" transform="translate(-182.4 -119.34)"/><path fill="#fff" d="M2592,849.41l-59.47-5.81c-.8,8.14-7,85.69-4,114.91,2.18,9,17,13.13,33.12,9.22,14.48-3.51,25-12.32,25.38-20.6h.07C2585.27,929.6,2589.23,877.86,2592,849.41Z" transform="translate(-182.4 -119.34)"/><path fill="#fff" d="M2617.53,875.34c-5,12.27-23.56,23-32.44,19.38S2578,880.26,2583,868s16.86-20.81,25.75-17.2S2622.52,863.07,2617.53,875.34Z" transform="translate(-182.4 -119.34)"/><path fill="#1a1a1a" d="M2575.72,869.08c-10.4-7.66-16.89,2.29-35.37,17.92s-56.1,19.75-68-28.24c-7.59-30.58-15.27,23.28-15.29,23.33,1.38,26,11.18,40,30.3,47.8,26.38,10.73,63.37,1.37,92.71-24.81C2583,891.63,2582.83,874.29,2575.72,869.08Z" transform="translate(-182.4 -119.34)"/><polygon fill="#3d7e9c" points="1885.81 490.4 2032.82 620.63 1885.81 571.48 1885.81 490.4"/><polygon fill="#3d7e9c" points="1349.38 490.4 1202.37 620.63 1349.38 571.48 1349.38 490.4"/><path fill="none" stroke="#ff9f9c" stroke-miterlimit="10" stroke-width="9" d="M1684,576.71V920.34a41.86,41.86,0,0,1-41.86,41.86h0a41.86,41.86,0,0,1-41.86-41.86V732.15a38.84,38.84,0,0,0-38.84-38.84h0a38.84,38.84,0,0,0-38.84,38.84V972.48a44.23,44.23,0,0,1-44.23,44.23h0a44.23,44.23,0,0,1-44.23-44.23V578.14a66,66,0,0,0-66-66h0a66,66,0,0,0-66,66v176" transform="translate(-182.4 -119.34)"/><path fill="#fff" d="M1856.78,292.12a172.79,172.79,0,0,0-181-172.59c-89.18,4.11-161.27,77-164.48,166.21a172.29,172.29,0,0,0,58.32,135.85c22.79,20.13,35.31,49.46,35.31,79.87v4.58a23.19,23.19,0,0,0,23.19,23.19h111.68A23.19,23.19,0,0,0,1763,506.05v-4.61a108.08,108.08,0,0,1,36.11-80.56A172.24,172.24,0,0,0,1856.78,292.12Z" transform="translate(-182.4 -119.34)"/><path fill="#9fa2c4" d="M1702.11,645.46h-36.22A17.94,17.94,0,0,1,1648,627.52V529.39a1.24,1.24,0,0,1,1.24-1.24h69.61a1.24,1.24,0,0,1,1.24,1.24v98.13A17.94,17.94,0,0,1,1702.11,645.46Z" transform="translate(-182.4 -119.34)"/><path fill="#c5c8e6" d="M1724.79,626.61h-81.58A21.62,21.62,0,0,1,1621.59,605V529.65a1.5,1.5,0,0,1,1.5-1.5h121.83a1.5,1.5,0,0,1,1.5,1.5V605A21.62,21.62,0,0,1,1724.79,626.61Z" transform="translate(-182.4 -119.34)"/><rect width="147.15" height="18.35" x="1428.02" y="472.05" fill="#9fa2c4" rx="5.36" ry="5.36"/><rect width="147.15" height="18.35" x="1428.02" y="445.56" fill="#9fa2c4" rx="5.36" ry="5.36"/><rect width="147.15" height="18.35" x="1428.02" y="419.07" fill="#9fa2c4" rx="5.36" ry="5.36"/><path fill="#ff9f9c" d="M1677.49,206.7a39.6,39.6,0,1,0-79.21,0c0,.22,0,.43,0,.64a30.16,30.16,0,0,0-33.12,43.15,38.57,38.57,0,0,0-7,64.17,28.1,28.1,0,0,0,22.59,44.8c.64,0,1.28,0,1.91-.07,0,0,0,0,0,.07a25.38,25.38,0,0,0,42.47,18.76,27.14,27.14,0,0,0,52.37-10V206.71h0Z" transform="translate(-182.4 -119.34)"/><path fill="#ffc0bd" d="M1651.92,328.1h2.4v-5.88h-2.4a22.77,22.77,0,0,1-22.75-22.75V259.27h-5.88v70.41a12.39,12.39,0,0,0-9.44,12h5.88a6.5,6.5,0,0,1,13,0h5.88a12.39,12.39,0,0,0-9.44-12V316.83A28.59,28.59,0,0,0,1651.92,328.1Z" transform="translate(-182.4 -119.34)"/><path fill="#ffc0bd" d="M1680.61,265.37a17.91,17.91,0,0,0-.19-2.56V206.71h-5.88A34.31,34.31,0,0,1,1640.28,241v5.88a40.16,40.16,0,0,0,34.27-19.25V252a17.83,17.83,0,0,0-29.63,13.39h5.88a12,12,0,0,1,23.75-2v85.15a30.06,30.06,0,0,0-24.2-12.24v5.88a24.23,24.23,0,0,1,24.2,24.2v1.88a24.2,24.2,0,0,1-48.4,0h-5.88a30,30,0,0,0,1.38,9,22.44,22.44,0,0,1-32.51-29.95,12.35,12.35,0,0,0,14.95-2l-4.16-4.16a6.5,6.5,0,0,1-9.19-9.19l-4.16-4.16a12.39,12.39,0,0,0-1.73,15.31,28.19,28.19,0,0,0-5,13.38,25.15,25.15,0,0,1,.87-50.29h2.94a12,12,0,0,1,23.93,0h5.88a17.84,17.84,0,0,0-32-10.84,19.45,19.45,0,0,0-17.74-11.53v5.88A13.57,13.57,0,0,1,1577,300.57a31,31,0,0,0-19.17,9.88A35.61,35.61,0,0,1,1580,249.36a17.87,17.87,0,0,0,17.58,14.8v-5.88a12,12,0,0,1,0-23.93v-5.88a17.87,17.87,0,0,0-17.62,15,41.2,41.2,0,0,0-13.22,3.09,34.38,34.38,0,0,1-1.85-9.68,27.22,27.22,0,0,1,54.32-2.54,12.39,12.39,0,0,0-9.32,12h5.88a6.5,6.5,0,0,1,13,0h5.88a12.39,12.39,0,0,0-9.55-12,33.17,33.17,0,0,0-23.82-29.2,36.66,36.66,0,0,1,73.28,1.64h5.88a42.54,42.54,0,0,0-85-2.77,33.11,33.11,0,0,0-36.46,33,39.46,39.46,0,0,0,2.44,12.32,41.48,41.48,0,0,0-7.14,66,31,31,0,0,0,25.6,47.22A28.32,28.32,0,0,0,1624,382.75a30.08,30.08,0,0,0,56.41-14.54V265.37Z" transform="translate(-182.4 -119.34)"/><path fill="#ff9f9c" d="M1690.51,206.7a39.6,39.6,0,1,1,79.21,0c0,.22,0,.43,0,.64a30.16,30.16,0,0,1,33.12,43.15,38.57,38.57,0,0,1,7,64.17,28.1,28.1,0,0,1-22.59,44.8c-.64,0-1.28,0-1.91-.07,0,0,0,0,0,.07a25.38,25.38,0,0,1-42.47,18.76,27.14,27.14,0,0,1-52.37-10V206.71h0Z" transform="translate(-182.4 -119.34)"/><path fill="#ffc0bd" d="M1716.08,328.1h-2.4v-5.88h2.4a22.77,22.77,0,0,0,22.75-22.75V259.27h5.88v70.41a12.39,12.39,0,0,1,9.44,12h-5.88a6.5,6.5,0,1,0-13,0h-5.88a12.39,12.39,0,0,1,9.44-12V316.83A28.59,28.59,0,0,1,1716.08,328.1Z" transform="translate(-182.4 -119.34)"/><path fill="#ffc0bd" d="M1687.38,265.37a17.91,17.91,0,0,1,.19-2.56V206.71h5.88A34.31,34.31,0,0,0,1727.72,241v5.88a40.16,40.16,0,0,1-34.27-19.25V252a17.83,17.83,0,0,1,29.63,13.39h-5.88a12,12,0,0,0-23.75-2v85.15a30.06,30.06,0,0,1,24.2-12.24v5.88a24.23,24.23,0,0,0-24.2,24.2v1.88a24.2,24.2,0,0,0,48.4,0h5.88a30,30,0,0,1-1.38,9,22.44,22.44,0,0,0,32.51-29.95,12.35,12.35,0,0,1-14.95-2l4.16-4.16a6.5,6.5,0,0,0,9.19-9.19l4.16-4.16a12.39,12.39,0,0,1,1.73,15.31,28.19,28.19,0,0,1,5,13.38,25.15,25.15,0,0,0-.87-50.29h-2.94a12,12,0,0,0-23.93,0h-5.88a17.84,17.84,0,0,1,32-10.84,19.45,19.45,0,0,1,17.74-11.53v5.88A13.57,13.57,0,0,0,1791,300.57a31,31,0,0,1,19.17,9.88A35.61,35.61,0,0,0,1788,249.36a17.87,17.87,0,0,1-17.58,14.8v-5.88a12,12,0,0,0,0-23.93v-5.88a17.87,17.87,0,0,1,17.62,15,41.2,41.2,0,0,1,13.22,3.09,34.38,34.38,0,0,0,1.85-9.68,27.22,27.22,0,0,0-54.32-2.54,12.39,12.39,0,0,1,9.32,12h-5.88a6.5,6.5,0,0,0-13,0h-5.88a12.39,12.39,0,0,1,9.55-12,33.17,33.17,0,0,1,23.82-29.2,36.66,36.66,0,0,0-73.28,1.64h-5.88a42.54,42.54,0,0,1,85-2.77,33.11,33.11,0,0,1,36.46,33,39.46,39.46,0,0,1-2.44,12.32,41.48,41.48,0,0,1,7.14,66,31,31,0,0,1-25.6,47.22A28.32,28.32,0,0,1,1744,382.75a30.08,30.08,0,0,1-56.41-14.54V265.37Z" transform="translate(-182.4 -119.34)"/><path fill="#bcf0f2" d="M1323 780.43h0a6.79 6.79 0 016.79 6.79v53.6a6.79 6.79 0 01-6.79 6.79h0a6.79 6.79 0 01-6.79-6.79v-53.6A6.79 6.79 0 011323 780.43zM1281.09 780.43h0a6.79 6.79 0 016.79 6.79v53.6a6.79 6.79 0 01-6.79 6.79h0a6.79 6.79 0 01-6.79-6.79v-53.6A6.79 6.79 0 011281.09 780.43z" transform="translate(-182.4 -119.34)"/><path fill="#80839e" d="M1263.53,714.64h77.07a0,0,0,0,1,0,0v52.24a38.53,38.53,0,0,1-38.53,38.53h0a38.53,38.53,0,0,1-38.53-38.53V714.64A0,0,0,0,1,1263.53,714.64Z" transform="rotate(-180 1210.86 700.36)"/><rect width="106.22" height="21.31" x="1248.95" y="783.7" fill="#8f92b0" rx="3.05" ry="3.05" transform="rotate(180 1210.86 734.69)"/><circle cx="1119.66" cy="622.26" r="5.32" fill="#ff9f9c"/><path fill="#ff9f9c" d="M1962.65,325.81c0-7.6-7.35-11.52-16.43-11.52-10.54,0-20.35,6.37-25.49,16.67l-43.63-21.82c12.5-23.53,37.26-39.71,76.48-39.71,38.49,0,67.17,16.18,67.17,46.82,0,37.5-39.22,44.12-39.22,63H1931C1931,349.59,1962.65,340.76,1962.65,325.81ZM1923.92,418c0-16.42,13.24-28.93,32.36-28.93s32.36,12.5,32.36,28.93c0,16.18-13.24,29.42-32.36,29.42S1923.92,434.16,1923.92,418Z" transform="translate(-182.4 -119.34)"/><path fill="#2a6682" d="M1826.16 651l0-.1 0-.19q-.07-.38-.15-.76l0-.18c-.06-.26-.11-.51-.17-.76l0-.18h0l0-.2-.12-.47 0-.08 0-.08-.12-.46-.06-.2v0l0-.18c-.07-.25-.14-.5-.22-.75l-.05-.18-.24-.74-.06-.18 0-.1 3.87-2.81 2.9-2.1a28.44 28.44 0 00-3.66-7.45l-3.44 1-4.59 1.35 0 0-.11-.16-.44-.64-.11-.15-.46-.64-.1-.13-.21-.28-.21-.28-.1-.13-.49-.62-.12-.15-.5-.6-.12-.14 0 0 2.55-4 1.92-3a28.52 28.52 0 00-6.16-5.56l-2.82 2.22-3.75 3-.08-.06-.16-.11-.65-.43-.16-.1-.66-.42-.16-.1h0l-.17-.11-.41-.25-.07 0-.08 0-.41-.24-.18-.1h0l-.16-.09-.69-.38-.17-.09-.69-.36-.17-.09-.09 0 .75-4.73.56-3.54a28.58 28.58 0 00-7.85-2.68l-1.72 3.14-2.29 4.2h-.05l-.19 0-.77-.14-.18 0-.78-.13-.16 0-.34-.05-.35 0-.16 0-.78-.09-.18 0-.78-.07-.19 0h-.05l-1.05-4.66-.79-3.5a28.52 28.52 0 00-8.29.43l-.43 3.57-.57 4.74-.1 0-.18 0-.77.15-.18 0-.77.17-.18 0h0l-.2 0-.47.12-.08 0-.08 0-.46.12-.2.06h0l-.18 0-.75.22-.18.05-.74.24-.18.06-.09 0-2.81-3.88-2.1-2.9a28.42 28.42 0 00-7.45 3.66l1 3.44 1.35 4.59 0 0-.15.11-.65.44-.15.11-.64.46-.13.09-.28.21-.28.21-.12.1-.62.49-.14.11-.61.5-.14.12 0 0-4-2.55-3-1.92a28.51 28.51 0 00-5.56 6.16l2.22 2.82 3 3.75-.06.09-.1.15-.43.65-.1.15-.42.67-.09.15v0l-.11.18-.25.41 0 .07h0l0 .08-.24.41-.1.18h0l-.09.16-.37.69-.09.16-.36.69-.08.17 0 .09-4.72-.75-3.54-.56a28.38 28.38 0 00-2.68 7.85l3.14 1.72 4.2 2.29v.06l0 .18c-.05.26-.1.52-.14.77l0 .18c0 .26-.09.52-.13.78l0 .16-.05.34 0 .35 0 .16c0 .26-.06.52-.09.79l0 .18c0 .26-.05.52-.08.78v.24l-4.66 1.05-3.5.79a28.52 28.52 0 00.43 8.29l3.57.43 4.74.57 0 .1 0 .19c0 .25.1.51.15.76l0 .19c.05.25.11.51.17.76l0 .18h0l0 .21.12.46 0 .08 0 .09.12.46.06.2v0l0 .17c.07.25.14.51.22.76l.05.18.24.75.06.17 0 .1-3.88 2.81-2.9 2.1a28.5 28.5 0 003.66 7.45l3.44-1 4.59-1.35 0 0 .11.16.44.64.11.15.46.64.09.13.21.28.21.28.1.12.49.62.11.14.5.61.12.14 0 0-2.55 4-1.92 3a28.53 28.53 0 006.16 5.56l2.82-2.22 3.75-3 .09.06.15.1.65.43.16.1.66.42.16.1h0l.18.11.41.25.07 0 .07 0 .42.24.18.1h0l.15.09.69.38.16.08.7.36.16.08.09 0-.75 4.72-.56 3.54a28.39 28.39 0 007.85 2.68l1.72-3.14 2.29-4.2h.05l.18 0 .77.14.18 0 .78.13.16 0 .35.05.34 0 .16 0 .79.09.18 0 .79.08h.24l1.05 4.66.79 3.5a28.52 28.52 0 008.29-.43l.43-3.57.57-4.74.1 0 .19 0 .76-.15.19 0 .76-.17.19 0h0l.21-.05.46-.12.08 0 .09 0 .46-.12.2-.06h0l.17 0 .76-.22.17-.05.75-.24.17-.06.1 0 2.81 3.87 2.1 2.9a28.64 28.64 0 007.45-3.66l-1-3.44-1.35-4.59 0 0 .16-.11.64-.44.16-.11.63-.46.13-.1.28-.21.28-.21.13-.1.62-.49.14-.11.6-.5.14-.12 0 0 4 2.55 3 1.92a28.52 28.52 0 005.56-6.16l-2.22-2.82-3-3.75.06-.08.11-.16.43-.64.11-.16.41-.66.1-.16h0l.11-.18.24-.41 0-.08 0-.08.24-.42.1-.18v0l.09-.16.38-.69.09-.16.36-.7.08-.17 0-.09 4.72.75 3.54.56a28.59 28.59 0 002.68-7.85l-3.14-1.72-4.2-2.29V667l0-.19c0-.25.1-.51.14-.77l0-.19c0-.26.08-.51.12-.77l0-.16c0-.12 0-.23.05-.34l0-.34 0-.16c0-.26.06-.52.09-.78l0-.18c0-.26.05-.52.07-.78 0-.06 0-.13 0-.19v-.05l4.66-1.05 3.5-.79a28.51 28.51 0 00-.43-8.29l-3.57-.43zm-18.77 6.55a23.06 23.06 0 11-24.22-21.83A23.06 23.06 0 011807.38 657.51zM2010.47 707.49l0-.19c0-.13 0-.26-.07-.38q-.15-.77-.31-1.54L2010 705c-.11-.52-.23-1-.35-1.54l-.09-.37a0 0 0 010 0c0-.14-.07-.27-.1-.41-.08-.32-.16-.63-.24-.94l0-.17c0-.06 0-.11 0-.17l-.25-.93c0-.14-.08-.27-.11-.41v0l-.1-.35c-.14-.51-.29-1-.45-1.52l-.1-.36q-.23-.75-.48-1.5l-.12-.36-.06-.2 7.82-5.67 5.86-4.24a57.38 57.38 0 00-7.38-15l-6.94 2-9.27 2.72-.06-.09-.21-.32c-.3-.43-.59-.87-.9-1.3l-.22-.31-.93-1.28-.2-.26-.42-.56-.43-.56-.2-.26-1-1.24-.24-.29-1-1.22-.24-.29-.07-.08 5.15-8.15 3.87-6.13A57.56 57.56 0 001988 642l-5.7 4.48-7.57 6-.17-.12-.32-.21-1.31-.87-.32-.21-1.33-.84-.32-.2h0l-.35-.22-.84-.5-.15-.09-.16-.09-.83-.48-.37-.21h0l-.33-.18-1.39-.76-.34-.18-1.39-.72-.34-.17-.18-.09 1.52-9.54 1.14-7.14a57.69 57.69 0 00-15.85-5.41l-3.47 6.35L1943 639l-.1 0-.38-.07-1.55-.28-.37-.06-1.57-.25-.32 0-.69-.1-.7-.09-.32 0-1.58-.19-.37 0-1.57-.15-.38 0h-.11l-2.13-9.4-1.6-7.07a57.55 57.55 0 00-16.73.87l-.86 7.2-1.14 9.57-.19 0-.37.07-1.55.31-.36.08-1.55.35-.36.09h0l-.41.1-.94.24-.17 0-.17 0-.94.25-.41.12h0l-.36.1-1.52.45-.36.11-1.49.48-.37.12-.19.06-5.67-7.82-4.24-5.85a57.37 57.37 0 00-15 7.38l2 6.94 2.72 9.26-.09.06-.31.21c-.44.29-.87.59-1.3.9l-.31.21-1.29.93-.26.19-.56.42-.56.43-.25.19-1.26 1-.29.23-1.23 1-.28.23-.08.07-8.15-5.15-6.13-3.87A57.55 57.55 0 001845 661.25l4.48 5.7 6 7.57-.12.17-.21.31c-.29.43-.59.87-.87 1.31l-.2.31-.85 1.34-.19.31 0 0-.22.36-.5.83-.08.14h0l-.09.15-.48.84-.21.37 0 0-.18.32-.76 1.39-.17.33c-.25.46-.49.93-.72 1.4l-.17.34-.1.18-9.53-1.52-7.14-1.14a57.28 57.28 0 00-5.41 15.85l6.34 3.47 8.48 4.63 0 .11-.07.36c-.1.52-.2 1-.29 1.56l-.06.36c-.09.52-.18 1-.25 1.58 0 .11 0 .21 0 .32s-.07.46-.1.7l-.09.7 0 .31c-.07.53-.13 1.06-.19 1.59l0 .36c-.06.53-.11 1.05-.15 1.58 0 .12 0 .25 0 .37s0 .08 0 .11l-9.4 2.13-7.07 1.6a57.56 57.56 0 00.87 16.73l7.2.86 9.57 1.14 0 .19c0 .13 0 .26.07.38.1.51.2 1 .31 1.53 0 .12.05.25.08.37.11.51.23 1 .35 1.53 0 .12.06.25.09.37v0l.1.42c.08.31.16.62.24.94l0 .16 0 .18.25.94.11.4a.11.11 0 010 0l.1.35c.14.51.29 1 .45 1.52l.1.35c.16.5.32 1 .48 1.5l.12.35c0 .07 0 .13.06.2l-7.82 5.67-5.85 4.24a57.5 57.5 0 007.38 15l6.94-2 9.26-2.72.06.09.21.31c.3.44.59.87.9 1.3l.22.31.93 1.29.19.26.42.57.43.56.19.25c.32.42.66.84 1 1.26l.23.28c.33.41.68.82 1 1.23l.23.28.07.08-5.15 8.15-3.87 6.13a57.57 57.57 0 0012.44 11.21l5.7-4.48 7.57-6 .17.12.31.21 1.31.87.32.2 1.34.85.32.19h0l.36.22.83.5.15.08.15.09.84.48.36.21 0 0 .31.18 1.4.77.32.17 1.41.73.33.16.19.1-1.52 9.53-1.14 7.14a57.29 57.29 0 0015.85 5.41l3.47-6.34 4.63-8.48.11 0 .37.07 1.56.29.36.06 1.58.25.32 0 .7.1.69.09.31 0 1.59.19.36 0 1.58.15.37 0h.11l2.13 9.4 1.6 7.07a57.56 57.56 0 0016.73-.87l.86-7.2 1.14-9.57.2 0 .38-.07 1.53-.31.38-.08 1.53-.35.37-.09h0l.42-.1.94-.24.16 0 .18 0 .93-.25.41-.11h0l.34-.1 1.53-.45.34-.1 1.51-.48.35-.12.2-.06 5.67 7.82 4.24 5.86a57.8 57.8 0 0015-7.38l-2-6.94-2.72-9.26.09-.06.32-.22 1.29-.89.31-.22 1.28-.92.26-.2.56-.42.56-.43.25-.2 1.25-1 .29-.23 1.22-1 .29-.25.08-.07 8.15 5.15 6.13 3.87A57.55 57.55 0 002007.26 785l-4.48-5.7-6-7.57.11-.16.22-.33.86-1.3.21-.33.83-1.32.2-.33h0l.23-.37.49-.82.09-.15.09-.15.48-.84.21-.36 0 0 .18-.32c.26-.46.51-.93.76-1.39l.17-.33.72-1.4.17-.33.09-.19 9.53 1.52 7.15 1.14a57.69 57.69 0 005.41-15.85l-6.35-3.47-8.48-4.63a.76.76 0 000-.1l.08-.38c.1-.51.2-1 .28-1.55l.07-.38c.09-.52.17-1 .25-1.56 0-.11 0-.22 0-.33s.07-.46.1-.7l.09-.69 0-.32c.07-.53.13-1.06.19-1.58 0-.13 0-.25 0-.37.05-.53.1-1.05.15-1.57 0-.13 0-.25 0-.38V730l9.4-2.13 7.07-1.6a57.54 57.54 0 00-.87-16.73l-7.2-.86zm-37.88 13.22a46.53 46.53 0 11-48.87-44.06A46.53 46.53 0 011972.59 720.72z" transform="translate(-182.4 -119.34)"/><path fill="#1a1c2e" d="M1806.85,766.43s-43.62,13.37-35.4,41,50.3-15.94,50.3-15.94S1826.57,757,1806.85,766.43Z" transform="translate(-182.4 -119.34)"/><path fill="#ff9f9c" d="M1856.94,1476.62c-20.16,57.84-38.58,117-55.86,177.15H1659c10.89-73.62,25.2-147.75,46.14-223.65Q1781.36,1452.3,1856.94,1476.62Z" transform="translate(-182.4 -119.34)"/><path fill="#ff9f9c" d="M1941,1653.77h-142c-17.28-60.15-35.7-119.31-55.86-177.15q75.42-24.48,151.77-46.5C1915.77,1506,1930.08,1580.15,1941,1653.77Z" transform="translate(-182.4 -119.34)"/><path fill="#292b3b" d="M1937.13,1608.14c-45.34-2.75-118.9-29-164.83-19.63-3.53.78-7.36,1.37-11.48,1.86v-98.22l-12.76,99.39c-29.93,2.06-68.36-.27-82.49-5,24.93-137.3,67.87-382.95,74.84-515,2.75-52.9,20.12-81,38.86-95.39A73.77,73.77,0,0,1,1793,967.9c31.7-16.19,63.1-17.27,87.54-3.83,20,10.8,35.43,31.21,42.79,60.85,5.5,22,4,39.45,1.77,68.8C1914.7,1233.27,1918.48,1445.92,1937.13,1608.14Z" transform="translate(-182.4 -119.34)"/><path fill="#fff" d="M1779.28 976.19l2.68 89.08 3.29 111.85 46.49-104 48.83-109.08c-24.5-13.42-55.84-12.38-87.52 3.81A71.06 71.06 0 001779.28 976.19zM1873.8 877.85c-30.61 47.06-88.21 63.89-117 45.18S1739 857.16 1769.65 810.1s69.5-55.85 98.26-37.14S1904.41 830.78 1873.8 877.85z" transform="translate(-182.4 -119.34)"/><path fill="#fff" d="M1867,870.05l-58.68-5.73c-.79,8-6.94,84.55-4,113.38,2.15,8.88,16.79,13,32.68,9.1,14.29-3.47,24.64-12.16,25-20.33h.07C1860.35,949.17,1864.25,898.13,1867,870.05Z" transform="translate(-182.4 -119.34)"/><path fill="#1a1c2e" d="M1845.13,894c-8.65-9.36-16.79-.93-37.61,10.76s-58,8.67-60.63-40.05c-1.09-20.62-9.18-5.16-14.49,7.56-3.9,9.33-6.18,19.4-5.37,29.48,1.25,15.59,8.33,26.34,21.13,34.66,19.16,12.46,47.61,13.35,75.48,2.54,14.81-5.74,25.54-19.79,24.65-35.65C1848.07,899.37,1847.1,896.09,1845.13,894Z" transform="translate(-182.4 -119.34)"/><path fill="#1a1c2e" d="M1745.3 862.85l2 1.06c10.25 5.55 56.75 31.65 61.46 50.88 5.3 21.63-25-8.36-34.17-22.22s-20.26-12-30.22-14.92S1729.86 862.29 1745.3 862.85zM1900.13 852.32s9.66-36.62-6.83-62.85-63.17-53.92-100.13-18.59c0 0-24 27.5 11.66 53.59s40 2.13 48.24 31.38 32.89 24.5 34 30.79z" transform="translate(-182.4 -119.34)"/><polygon fill="#ffb0ad" points="1599.56 945.93 1602.85 1057.78 1649.34 953.81 1647.52 885.93 1627 885.93 1599.56 945.93"/><path fill="#fff" d="M1887.81 904.56c-7.13 11-27.11 17.89-35 12.73s-4.14-15.33 3-26.29 20.22-17 28.15-11.86S1894.93 893.61 1887.81 904.56zM1987.18 1536.91s-68.8 73.22-94 71.19 32.38-79.12 90.8-95.72z" transform="translate(-182.4 -119.34)"/><path fill="#292b3b" d="M1992.42,1551.74c-11.86-11.58-24.85-23.08-37.61-35.2,187.12-175.75,248.61-350.13-61.14-443.07-47.38-14.22-49-26-26-58.35-6-6.16-6.1-6.07,0,0,23-32.3,34.94-25.41,78.32-3.17C2229.6,1157.31,2229.77,1354.71,1992.42,1551.74Z" transform="translate(-182.4 -119.34)"/><path fill="#fff" d="M1600.28,1513.11s56.64,83,81.87,84.88-19.74-83.18-74.89-108.62Z" transform="translate(-182.4 -119.34)"/><path fill="#292b3b" d="M1772,989.58l-6.38,80c-.39.1-.88.1-1.28.2-320.43,43.87-286.67,225.62-129,428.28-14.53,9.91-29.15,19.33-42.59,29-204-231.41-173.32-426.42,129.45-526.13C1745.93,993,1760.75,987.91,1772,989.58Z" transform="translate(-182.4 -119.34)"/><rect width="13.21" height="155.58" x="1571.48" y="558.06" fill="#3b3e54" transform="rotate(-49.83 1358.51 772.512)"/><rect width="21.17" height="112.9" x="1586.81" y="595.7" fill="#3ac5c9" transform="rotate(-49.83 1377.83 788.815)"/><path fill="#3b3e54" d="M1394.73,481.09a83.33,83.33,0,1,0,117.43-9.93A83.33,83.33,0,0,0,1394.73,481.09Zm121.62,102.66a75.82,75.82,0,1,1-9-106.85A75.82,75.82,0,0,1,1516.35,583.74Z" transform="translate(-182.4 -119.34)"/><circle cx="1458.41" cy="534.84" r="75.82" fill="#fff" opacity=".4" transform="rotate(-49.83 1238.836 671.5)"/><polygon fill="#ffd3d1" points="1702.79 298.88 1621.25 327.26 1655.54 425.8 1754.08 391.5 1725.7 309.97 1702.79 298.88"/><polygon fill="#ffb6b3" points="1708.7 315.88 1725.7 309.97 1702.79 298.88 1708.7 315.88"/><rect width="54.75" height="54.75" x="1842.69" y="451.35" fill="#fff" transform="rotate(-19.19 1425.99 958.58)"/><line x1="1669.66" x2="1690.14" y1="357.13" y2="367.04" fill="none" stroke="#FFE7BF" stroke-linecap="round" stroke-linejoin="round" stroke-width="10"/><line x1="1700.38" x2="1690.47" y1="346.44" y2="366.92" fill="none" stroke="#FFE7BF" stroke-linecap="round" stroke-linejoin="round" stroke-width="10"/><polygon fill="#6be0e3" points="1793.05 366.9 1706.71 366.9 1706.71 471.24 1811.05 471.24 1811.05 384.9 1793.05 366.9"/><polygon fill="#3ac5c9" points="1793.05 384.9 1811.05 384.9 1793.05 366.9 1793.05 384.9"/><rect width="54.75" height="54.75" x="1731.51" y="391.7" fill="#fff"/><line x1="1748.23" x2="1769.53" y1="408.42" y2="429.72" fill="none" stroke="#ff7975" stroke-linecap="round" stroke-linejoin="round" stroke-width="10"/><line x1="1769.53" x2="1748.23" y1="408.42" y2="429.72" fill="none" stroke="#ff7975" stroke-linecap="round" stroke-linejoin="round" stroke-width="10"/><polygon fill="#c5c8e6" points="1919.98 325.85 1833.65 325.85 1833.65 430.18 1937.98 430.18 1937.98 343.85 1919.98 325.85"/><polygon fill="#9fa2c4" points="1919.98 343.85 1937.98 343.85 1919.98 325.85 1919.98 343.85"/><rect width="76.18" height="5.97" x="1847.72" y="350.81" fill="#9fa2c4"/><rect width="76.18" height="5.97" x="1847.72" y="361.46" fill="#9fa2c4"/><rect width="76.18" height="5.97" x="1847.72" y="372.11" fill="#9fa2c4"/><rect width="76.18" height="5.97" x="1847.72" y="382.75" fill="#9fa2c4"/><rect width="76.18" height="5.97" x="1847.72" y="393.4" fill="#9fa2c4"/><rect width="56.96" height="5.97" x="1847.72" y="404.05" fill="#9fa2c4"/><path fill="#fff" d="M2028.68 626.61a29.93 29.93 0 0029.93-29.93 29.93 29.93 0 0029.93 29.93 29.93 29.93 0 00-29.93 29.93A29.93 29.93 0 002028.68 626.61zM2011.67 398.29a16.7 16.7 0 0016.7-16.7 16.7 16.7 0 0016.7 16.7 16.7 16.7 0 00-16.7 16.7A16.7 16.7 0 002011.67 398.29zM1718.27 744.72A16.7 16.7 0 001735 728a16.7 16.7 0 0016.7 16.7 16.7 16.7 0 00-16.7 16.7A16.7 16.7 0 001718.27 744.72z" transform="translate(-182.4 -119.34)"/><path fill="#ffd3d1" d="M698.62 1590.61a174.64 174.64 0 00-167.87 126.56H866.49A174.64 174.64 0 00698.62 1590.61zM1156.61 1590.61a174.64 174.64 0 00-167.88 126.56h335.75A174.64 174.64 0 001156.61 1590.61z" transform="translate(-182.4 -119.34)"/><path fill="#ffd3d1" d="M938.41,1536.4c-113.93,0-210,76.41-239.79,180.77H1178.2C1148.41,1612.8,1052.34,1536.4,938.41,1536.4Z" transform="translate(-182.4 -119.34)"/><path fill="#fff" d="M2148.26 1068.24a16.7 16.7 0 0016.7-16.7 16.7 16.7 0 0016.7 16.7 16.7 16.7 0 00-16.7 16.7A16.7 16.7 0 002148.26 1068.24zM588.58 1112.68a16.7 16.7 0 0016.7-16.7 16.7 16.7 0 0016.7 16.7 16.7 16.7 0 00-16.7 16.7A16.7 16.7 0 00588.58 1112.68zM2409.49 704.9a16.7 16.7 0 0016.7-16.7 16.7 16.7 0 0016.7 16.7 16.7 16.7 0 00-16.7 16.7A16.7 16.7 0 002409.49 704.9zM514 1560.26a16.7 16.7 0 0016.7-16.7 16.7 16.7 0 0016.7 16.7 16.7 16.7 0 00-16.7 16.7A16.7 16.7 0 00514 1560.26zM3140 1504.64a16.7 16.7 0 0016.7-16.7 16.7 16.7 0 0016.7 16.7 16.7 16.7 0 00-16.7 16.7A16.7 16.7 0 003140 1504.64zM1543.54 491.45a16.7 16.7 0 0016.7-16.7 16.7 16.7 0 0016.7 16.7 16.7 16.7 0 00-16.7 16.7A16.7 16.7 0 001543.54 491.45z" transform="translate(-182.4 -119.34)"/><path fill="#7fc9eb" d="M2231.45 1650a117.22 117.22 0 00-112.68 85h225.37A117.22 117.22 0 002231.45 1650zM2538.87 1650a117.22 117.22 0 00-112.68 85h225.37A117.22 117.22 0 002538.87 1650z" transform="translate(-182.4 -119.34)"/><path fill="#7fc9eb" d="M2392.41,1613.6a167.44,167.44,0,0,0-161,121.34h321.91A167.44,167.44,0,0,0,2392.41,1613.6Z" transform="translate(-182.4 -119.34)"/></svg>