<svg xmlns="http://www.w3.org/2000/svg" viewBox="0 0 64 64"><rect width="8" height="22" x="49" y="29" fill="#ffda44"/><polygon fill="#898890" points="44 32 38 28 28 28 28 34 32 34 32 54 39 54 45 48 49 48 49 32 44 32"/><polygon fill="#ff5023" points="13 8 16 6 35 6 36.93 8 38.9 6 43 6 43 22 39 22 36.93 20 34.82 22 16 22 13 20 11 22 7 22 7 6 11 6 13 8"/><path fill="#b39a7c" d="M32,54v5a2.006,2.006,0,0,1-2,2H21a2.006,2.006,0,0,1-2-2V54h7V49h1V43h1V37h2V34h2Z"/><polygon fill="#b39a7c" points="32 22 32 28 28 28 28 31.04 19 31.01 19 31 19 22 32 22"/><rect width="13" height="3" x="19" y="3" fill="#b39a7c"/><polygon fill="#898890" points="30 34 30 37 16 37 16 31 28 31.04 28 34 30 34"/><rect width="14" height="6" x="14" y="37" fill="#898890"/><rect width="12" height="6" x="15" y="43" fill="#898890"/><rect width="9" height="5" x="17" y="49" fill="#898890"/><path fill="#231f20" d="M57,28H49a1,1,0,0,0-1,1v2H44.3l-5.748-3.832A1.006,1.006,0,0,0,38,27H33V23h1.817a1,1,0,0,0,.688-.274l1.417-1.342,1.384,1.336A1,1,0,0,0,39,23h4a1,1,0,0,0,1-1V6a1,1,0,0,0-1-1H38.9a1,1,0,0,0-.712.3l-1.25,1.269L35.72,5.306A1,1,0,0,0,35,5H33V3a1,1,0,0,0-1-1H19a1,1,0,0,0-1,1V5H16a1.006,1.006,0,0,0-.555.168L13.127,6.713l-1.42-1.42A1,1,0,0,0,11,5H7A1,1,0,0,0,6,6V22a1,1,0,0,0,1,1h4a1,1,0,0,0,.707-.293l1.42-1.42,2.318,1.545A1.006,1.006,0,0,0,16,23h2v7H16a1,1,0,0,0-1,1v5H14a1,1,0,0,0-1,1v6a1,1,0,0,0,1,1v5a1,1,0,0,0,1,1h1v4a1,1,0,0,0,1,1h1v4a3,3,0,0,0,3,3h9a3,3,0,0,0,3-3V55h6a1,1,0,0,0,.707-.293L45.414,49H48v2a1,1,0,0,0,1,1h8a1,1,0,0,0,1-1V29A1,1,0,0,0,57,28ZM20,4H31V5H20ZM13.555,19.168a1,1,0,0,0-1.262.125L10.586,21H8V7h2.586L12,8.414V11h2V8.535L16.3,7H34.575l1.634,1.694A1,1,0,0,0,36.923,9h.006a1,1,0,0,0,.712-.3L39.318,7H42V21H39.4L38,19.644V17H36v2.5L34.419,21H16.3ZM20,23H31v4H28a1,1,0,0,0-1,1v2H20Zm-3,9H27v2a1,1,0,0,0,1,1h1v1H17Zm-2,6H27v4H15Zm11,6v4H16V44Zm-1,6v3H18V50Zm6-13V59a1,1,0,0,1-1,1H21a1,1,0,0,1-1-1V55h6a1,1,0,0,0,1-1V50a1,1,0,0,0,1-1V44a1,1,0,0,0,1-1V38h1a1,1,0,0,0,1-1ZM45,47a1,1,0,0,0-.707.293L38.586,53H33V35h.382L36.1,40.447A1,1,0,0,0,37,41h3V39H37.618L34.9,33.553A1,1,0,0,0,34,33H29V29h8.7l5.748,3.832A1.006,1.006,0,0,0,44,33h4V47Zm11,3H50V30h2v5h2V30h2Z"/><rect width="2" height="2" x="52" y="37" fill="#231f20"/><rect width="2" height="2" x="44" y="35" fill="#231f20"/><rect width="2" height="2" x="44" y="39" fill="#231f20"/><rect width="2" height="2" x="44" y="43" fill="#231f20"/><rect width="2" height="2" x="12" y="13" fill="#231f20"/><rect width="2" height="2" x="36" y="13" fill="#231f20"/></svg>