<svg xmlns="http://www.w3.org/2000/svg" width="100" height="100" viewBox="0 0 100 100"><path fill="#243A73" d="M13,27c-1.105,0-2,0.895-2,2s0.895,2,2,2s2-0.895,2-2S14.105,27,13,27z"/><path fill="#f1bc19" d="M77,12c-0.551,0-1,0.449-1,1s0.449,1,1,1s1-0.449,1-1S77.551,12,77,12z"/><path fill="#fce0a2" d="M50,13c-20.434,0-37,16.566-37,37s16.566,37,37,37s37-16.566,37-37S70.434,13,50,13z"/><path fill="#f1bc19" d="M83,11c-2.211,0-4,1.789-4,4s1.789,4,4,4s4-1.789,4-4S85.211,11,83,11z"/><path fill="#243A73" d="M87,22c-1.105,0-2,0.895-2,2s0.895,2,2,2s2-0.895,2-2S88.105,22,87,22z"/><path fill="#fbcd59" d="M81,74c-1.105,0-2,0.895-2,2s0.895,2,2,2s2-0.895,2-2S82.105,74,81,74z M15,59 c-2.211,0-4,1.789-4,4s1.789,4,4,4s4-1.789,4-4S17.211,59,15,59z"/><path fill="#243A73" d="M25,85c-1.105,0-2,0.895-2,2s0.895,2,2,2s2-0.895,2-2S26.105,85,25,85z"/><path fill="#fff" d="M21.5,34c-1.379,0-2.5,1.121-2.5,2.5s1.121,2.5,2.5,2.5s2.5-1.121,2.5-2.5S22.879,34,21.5,34z"/><path fill="#f1bc19" d="M21,66c-0.551,0-1,0.449-1,1s0.449,1,1,1s1-0.449,1-1S21.551,66,21,66z"/><path fill="#fff" d="M80,33c-0.551,0-1,0.449-1,1s0.449,1,1,1s1-0.449,1-1S80.551,33,80,33z"/><polygon fill="#00a5a5" points="44.474 76.3 42.874 72.3 35.896 72.3 36.547 69.7 63.453 69.7 64.104 72.3 57.126 72.3 55.526 76.3"/><path fill="#472b29" d="M62.907,70.4l0.3,1.2H57.6h-0.948L56.3,72.48l-1.248,3.12H44.948L43.7,72.48l-0.352-0.88H42.4 h-5.607l0.3-1.2H62.907 M64,69H36l-1,4h7.4l1.6,4h12l1.6-4H65L64,69L64,69z"/><path fill="#00a5a5" d="M56.839,56.151c1.441-2.758,0.733-4.958-0.149-6.345c-0.874-1.373-2.068-2.193-2.367-2.384 c-0.319-0.291-1.936-1.674-8.32-6.23c-6.629-4.732-2.083-12.217-1.887-12.533l5.636-7.504l0.186,0.185 c-1.038,3.596,2.26,5.883,3.877,7.005c0.27,0.187,0.506,0.35,0.682,0.49c0.054,0.041,3.094,2.259,8.311,6.229 c5.438,4.137,1.971,10.378,1.93,10.437l-7.813,10.734L56.839,56.151z"/><path fill="#472b29" d="M49.064,23.236c0.308,2.88,3.026,4.766,4.35,5.683c0.255,0.177,0.478,0.33,0.644,0.462l0.024,0.02 l0.025,0.019c0.03,0.022,3.066,2.237,8.275,6.202c4.914,3.738,1.82,9.419,1.79,9.462l-5.802,7.971 c0.006-1.481-0.509-2.71-1.091-3.625c-0.911-1.431-2.117-2.295-2.532-2.567c-0.461-0.411-2.237-1.887-8.338-6.241 c-5.901-4.211-2.124-10.886-1.728-11.548L49.064,23.236 M49.675,20.09l-6.154,8.198c0,0-5.186,8.292,2.075,13.474 s8.298,6.218,8.298,6.218s5.186,3.109,2.075,8.292l1.037,1.037l8.298-11.401c0.648-0.907,3.386-7.246-2.075-11.4 c-5.284-4.021-8.298-6.219-8.298-6.219c-1.297-1.037-5.661-3.242-4.194-7.138L49.675,20.09L49.675,20.09z"/><path fill="#00a5a5" d="M49.439,66.175c0.205-2.491-1.882-3.986-2.297-4.257c-0.263-0.237-1.387-1.184-5.569-4.169 c-4.267-3.046-1.327-7.86-1.199-8.064l3.311-4.407c-0.134,2.285,3.296,4.594,3.334,4.619c0.019,0.02,1.92,1.603,5.53,4.146 c3.72,2.619,0.794,7.236,0.764,7.282l-3.651,5.003L49.439,66.175z"/><path fill="#472b29" d="M43.334,46.911c0.823,1.799,2.82,3.24,3.23,3.522c0.346,0.286,2.241,1.829,5.582,4.181 c3.117,2.195,0.784,6.006,0.595,6.303l-2.736,3.75c-0.407-1.589-1.569-2.746-2.444-3.314c-0.388-0.341-1.656-1.375-5.581-4.175 c-3.546-2.53-1.41-6.458-1.039-7.08L43.334,46.911 M43.621,44.197l-3.841,5.117c0,0-3.466,5.542,1.387,9.005 s5.546,4.156,5.546,4.156s2.461,1.487,1.976,4.035l1.137,0.78l4.068-5.576c0.778-1.166,2.807-5.604-0.942-8.243 c-3.629-2.555-5.546-4.156-5.546-4.156c-1.032-0.686-3.626-2.888-2.896-4.507L43.621,44.197L43.621,44.197z"/><g><path fill="#472b29" d="M60.25,47.5c-0.057,0-0.113-0.019-0.16-0.058c-0.106-0.088-0.12-0.246-0.032-0.352 c2.076-2.49,2.976-4.712,2.676-6.603c-0.285-1.795-1.603-2.642-1.616-2.65c-0.116-0.073-0.152-0.228-0.079-0.344 c0.075-0.118,0.229-0.151,0.344-0.08c0.062,0.038,1.518,0.964,1.844,2.984c0.329,2.042-0.607,4.402-2.783,7.013 C60.393,47.469,60.321,47.5,60.25,47.5z"/></g><g><path fill="#472b29" d="M59.367,36.5c-0.052,0-0.103-0.016-0.147-0.048l-6.161-4.5c-0.111-0.081-0.136-0.238-0.055-0.349 c0.082-0.112,0.238-0.135,0.35-0.054l6.161,4.5c0.111,0.081,0.136,0.238,0.055,0.349C59.521,36.464,59.444,36.5,59.367,36.5z"/></g><g><path fill="#472b29" d="M51.323,30.625c-0.049,0-0.099-0.014-0.142-0.044c-1.497-1.033-2.146-2.203-2.775-3.334 c-0.066-0.121-0.023-0.273,0.098-0.34c0.119-0.067,0.273-0.023,0.34,0.097c0.628,1.131,1.222,2.199,2.621,3.166 c0.114,0.078,0.143,0.234,0.064,0.348C51.48,30.587,51.402,30.625,51.323,30.625z"/></g><g><path fill="#472b29" d="M50.355,61.375c-0.057,0-0.113-0.019-0.16-0.058c-0.106-0.088-0.12-0.246-0.032-0.352 c1.012-1.214,1.453-2.289,1.312-3.196c-0.131-0.841-0.727-1.228-0.752-1.244l-3.746-2.753c-0.111-0.082-0.135-0.238-0.053-0.349 c0.083-0.112,0.238-0.134,0.35-0.053l3.73,2.743c0.017,0.01,0.791,0.502,0.963,1.568c0.17,1.058-0.307,2.272-1.419,3.606 C50.498,61.344,50.427,61.375,50.355,61.375z"/></g><g><path fill="#472b29" d="M45.5,52.625c-0.051,0-0.102-0.015-0.146-0.047c-0.914-0.653-2.053-2.007-2.225-2.906 c-0.026-0.136,0.063-0.267,0.198-0.293c0.135-0.026,0.267,0.063,0.292,0.198c0.145,0.749,1.207,2.009,2.025,2.594 c0.112,0.08,0.138,0.236,0.058,0.349C45.654,52.589,45.578,52.625,45.5,52.625z"/></g><g><path fill="#472b29" d="M68.924,45.25c-0.034,0-0.068-0.007-0.102-0.021c-0.126-0.056-0.183-0.203-0.127-0.33 c1.187-2.685,1.22-8.063-2.479-11.08c-0.106-0.087-0.123-0.245-0.035-0.352c0.087-0.107,0.243-0.123,0.352-0.036 c3.899,3.181,3.868,8.844,2.619,11.67C69.111,45.194,69.02,45.25,68.924,45.25z"/></g><g><path fill="#472b29" d="M64.5,52.359c-0.052,0-0.104-0.016-0.148-0.049c-0.111-0.082-0.135-0.239-0.053-0.35 c1.853-2.5,3.06-4.175,3.491-4.846c0.075-0.117,0.23-0.149,0.346-0.075c0.115,0.075,0.149,0.229,0.074,0.345 c-0.443,0.689-1.624,2.329-3.509,4.873C64.651,52.324,64.576,52.359,64.5,52.359z"/></g><g><path fill="#472b29" d="M61.125,56.875c-0.053,0-0.105-0.016-0.15-0.05c-0.11-0.083-0.133-0.24-0.049-0.35 c0,0,0.854-1.132,1.968-2.624c0.083-0.11,0.239-0.134,0.35-0.051c0.11,0.083,0.134,0.239,0.051,0.35 c-1.114,1.493-1.97,2.626-1.97,2.626C61.275,56.841,61.2,56.875,61.125,56.875z"/></g><g><path fill="#472b29" d="M44.875,65.375c-0.049,0-0.099-0.014-0.142-0.044c0,0-0.803-0.552-2.004-1.408 c-0.112-0.08-0.139-0.236-0.058-0.349c0.081-0.113,0.236-0.138,0.349-0.058c1.196,0.853,1.995,1.403,1.996,1.404 c0.114,0.078,0.143,0.234,0.064,0.348C45.032,65.337,44.954,65.375,44.875,65.375z"/></g><g><path fill="#472b29" d="M41.5,62.979c-0.051,0-0.103-0.016-0.146-0.048c-0.743-0.539-1.555-1.138-2.379-1.761 c-0.11-0.083-0.132-0.24-0.049-0.35c0.083-0.11,0.24-0.131,0.35-0.049c0.822,0.621,1.632,1.218,2.371,1.755 c0.112,0.081,0.137,0.238,0.056,0.349C41.653,62.943,41.577,62.979,41.5,62.979z"/></g><g><path fill="#472b29" d="M37.375,59.875c-0.055,0-0.108-0.017-0.154-0.053C33.63,57,35.119,51.61,35.135,51.556 c0.037-0.132,0.175-0.21,0.309-0.172c0.133,0.038,0.21,0.176,0.172,0.309c-0.015,0.051-1.41,5.123,1.914,7.735 c0.108,0.085,0.128,0.242,0.042,0.351C37.522,59.842,37.449,59.875,37.375,59.875z"/></g></svg>