<svg xmlns="http://www.w3.org/2000/svg" enable-background="new 0 0 512 512" viewBox="0 0 512 512"><path fill="#eceff1" fill-rule="evenodd" d="M421.208,345.216c45.537,0,82.793-37.255,82.793-82.793l0,0c0-38.072-26.044-70.35-61.195-79.911 c-6.479-59.863-57.174-106.469-118.759-106.469c-14.15,0-27.726,2.46-40.32,6.977c-23.812-23.039-56.244-37.22-91.992-37.22 c-73.077,0-132.318,59.242-132.318,132.318c0,2.565,0.08,5.11,0.224,7.637c-30.213,12.373-51.64,42.135-51.64,76.668l0,0 c0,45.537,37.256,82.793,82.793,82.793H421.208z" clip-rule="evenodd"/><path fill="#d1d1d6" fill-rule="evenodd" d="M296.329,110.061c61.585,0,112.28,46.606,118.759,106.469c35.151,9.562,61.195,41.839,61.195,79.911 c0,11.833-2.516,23.106-7.038,33.312c21.005-15.055,34.757-39.664,34.757-67.33c0-38.072-26.044-70.35-61.195-79.911 c-6.479-59.863-57.174-106.469-118.759-106.469c-14.15,0-27.726,2.46-40.32,6.977c-23.812-23.039-56.244-37.22-91.992-37.22 c-49.299,0-92.302,26.962-115.067,66.944c23.304-20.496,53.875-32.926,87.348-32.926c35.748,0,68.18,14.181,91.992,37.22 C268.603,112.521,282.179,110.061,296.329,110.061z" clip-rule="evenodd"/><path fill="#ffe177" fill-rule="evenodd" d="M199.449,198.159c8.774,2.088,17.154,5.567,24.834,10.296l16.137-7.167l19.02,19.019l-7.165,16.133 c4.73,7.681,8.209,16.064,10.297,24.84l16.464,6.337v26.897l-16.468,6.339c-2.088,8.774-5.567,17.154-10.295,24.833l7.167,16.137 l-19.019,19.02l-16.133-7.165c-7.681,4.73-16.064,8.209-24.84,10.297l-6.337,16.464h-26.897l-6.339-16.468 c-8.774-2.088-17.154-5.567-24.833-10.296l-16.137,7.167l-19.02-19.019l7.165-16.133c-4.73-7.681-8.209-16.065-10.297-24.841 l-16.464-6.337v-26.897l16.466-6.338c2.088-8.775,5.567-17.156,10.296-24.836l-7.166-16.135l19.019-19.02l16.137,7.167 c7.68-4.729,16.06-8.207,24.834-10.296l6.339-16.467h26.897L199.449,198.159L199.449,198.159z M179.662,230.056 c-28.174,0-51.009,22.835-51.009,51.009s22.835,51.009,51.009,51.009c28.174,0,51.009-22.835,51.009-51.009 S207.836,230.056,179.662,230.056z" clip-rule="evenodd"/><path fill="#ffd064" fill-rule="evenodd" d="M199.449,198.159c8.774,2.088,17.154,5.567,24.834,10.296l16.137-7.167l19.02,19.019l-7.165,16.133 c4.73,7.681,8.209,16.064,10.297,24.84l16.464,6.337v26.897l-16.468,6.339c-2.088,8.774-5.567,17.154-10.295,24.833l7.167,16.137 l-19.019,19.02l-16.133-7.165c-7.681,4.73-16.064,8.209-24.84,10.297l-6.337,16.464h-13.449v-48.365h0 c28.174,0,51.009-22.835,51.009-51.009s-22.835-51.009-51.009-51.009h0v-48.365h13.449L199.449,198.159z" clip-rule="evenodd"/><path fill="#8ac9fe" fill-rule="evenodd" d="M368.801,313.112c5.961,1.419,11.654,3.782,16.871,6.994l10.962-4.869l12.921,12.92l-4.867,10.959 c3.214,5.218,5.577,10.913,6.995,16.875l11.184,4.305v18.272l-11.187,4.306c-1.419,5.96-3.782,11.653-6.994,16.87l4.869,10.962 l-12.92,12.921l-10.96-4.867c-5.218,3.214-10.913,5.577-16.875,6.995l-4.305,11.184h-18.272l-4.306-11.187 c-5.96-1.419-11.653-3.782-16.87-6.994l-10.962,4.869l-12.921-12.92l4.867-10.96c-3.214-5.218-5.577-10.913-6.995-16.875 l-11.184-4.305v-18.272l11.186-4.306c1.418-5.961,3.781-11.654,6.994-16.872l-4.868-10.961l12.92-12.921l10.963,4.869 c5.217-3.212,10.91-5.575,16.871-6.994l4.306-11.187h18.272L368.801,313.112L368.801,313.112z M355.359,340.019 c-16.246,0-29.414,13.168-29.414,29.414s13.168,29.414,29.414,29.414c16.247,0,29.414-13.168,29.414-29.414 S371.606,340.019,355.359,340.019z" clip-rule="evenodd"/><path fill="#60b7ff" fill-rule="evenodd" d="M368.801,313.112c5.961,1.419,11.654,3.782,16.871,6.994l10.962-4.869l12.921,12.92l-4.867,10.959 c3.214,5.218,5.577,10.913,6.995,16.875l11.184,4.305v18.272l-11.187,4.306c-1.419,5.96-3.782,11.653-6.994,16.87l4.869,10.962 l-12.92,12.921l-10.96-4.867c-5.218,3.214-10.913,5.577-16.875,6.995l-4.305,11.184h-9.137v-38.094h0 c16.247,0,29.414-13.168,29.414-29.414s-13.168-29.414-29.414-29.414h0v-38.094h9.136L368.801,313.112z" clip-rule="evenodd"/><path fill="#6cf5c2" fill-rule="evenodd" d="M356.32,168.106c4.75,1.131,9.287,3.014,13.445,5.574l8.737-3.88l10.297,10.297l-3.879,8.734 c2.561,4.158,4.444,8.697,5.575,13.448l8.913,3.431v14.562l-8.916,3.432c-1.13,4.75-3.014,9.287-5.574,13.445l3.88,8.737 l-10.296,10.297l-8.734-3.879c-4.158,2.561-8.697,4.444-13.448,5.575l-3.431,8.913h-14.562l-3.432-8.916 c-4.75-1.13-9.287-3.014-13.445-5.574l-8.736,3.88l-10.297-10.297l3.879-8.734c-2.561-4.158-4.444-8.697-5.575-13.449 l-8.913-3.431V205.71l8.915-3.432c1.131-4.75,3.014-9.288,5.574-13.446l-3.88-8.736l10.297-10.297l8.736,3.88 c4.158-2.56,8.695-4.443,13.445-5.574l3.432-8.915h14.562L356.32,168.106L356.32,168.106z M345.607,192.191 c-11.488,0-20.799,9.311-20.799,20.799c0,11.488,9.311,20.799,20.799,20.799c11.488,0,20.799-9.311,20.799-20.799 C366.407,201.503,357.095,192.191,345.607,192.191z" clip-rule="evenodd"/><path fill="#00e499" fill-rule="evenodd" d="M356.32,168.106c4.75,1.131,9.287,3.014,13.445,5.574l8.737-3.88l10.297,10.297l-3.879,8.734 c2.561,4.158,4.444,8.697,5.575,13.448l8.913,3.431v14.562l-8.916,3.432c-1.13,4.75-3.014,9.287-5.574,13.445l3.88,8.737 l-10.296,10.297l-8.734-3.879c-4.158,2.561-8.697,4.444-13.448,5.575l-3.431,8.913h-7.281v-33h0 c11.488,0,20.799-9.311,20.799-20.799c0-11.488-9.311-20.799-20.799-20.799h0v-33h7.281L356.32,168.106z" clip-rule="evenodd"/><path fill-rule="evenodd" d="M267.32,151.261c-1.542,2.292-4.071,3.533-6.637,3.533c-1.543,0-3.09-0.453-4.472-1.373 c-23.062-15.557-50.011-23.34-77.908-22.51c-12.571,0.382-24.836,2.481-36.6,6.269l12.076,3.604 c4.231,1.259,6.642,5.717,5.382,9.949c-1.043,3.481-4.222,5.722-7.661,5.722c-0.759,0-1.528-0.113-2.293-0.33l-33.916-10.113 c-2.552-0.759-4.552-2.75-5.354-5.288c-0.788-2.543-0.269-5.312,1.401-7.392l24.482-30.501c2.769-3.439,7.812-3.986,11.25-1.226 c3.448,2.769,4,7.797,1.227,11.25l-5.977,7.448c11.5-3.212,23.368-5.019,35.501-5.382c31.279-0.939,61.478,7.793,87.337,25.232 C268.829,142.623,269.792,147.6,267.32,151.261L267.32,151.261z M345.61,225.762c-7.062,0-12.798-5.741-12.798-12.802 c0-7.048,5.736-12.798,12.798-12.798c7.052,0,12.802,5.75,12.802,12.798C358.412,220.022,352.662,225.762,345.61,225.762 L345.61,225.762z M345.61,184.162c-15.883,0-28.798,12.92-28.798,28.798c0,15.883,12.915,28.803,28.798,28.803 c15.883,0,28.802-12.92,28.802-28.803C374.412,197.082,361.492,184.162,345.61,184.162L345.61,184.162z M391.408,214.753v-3.58 l-3.788-1.448c-2.458-0.953-4.302-3.052-4.911-5.623c-0.929-3.92-2.481-7.661-4.599-11.099c-1.392-2.25-1.571-5.028-0.5-7.439 l1.651-3.722l-2.529-2.528l-3.722,1.651c-2.411,1.08-5.198,0.887-7.439-0.505c-3.444-2.118-7.184-3.665-11.104-4.599 c-2.571-0.609-4.665-2.448-5.618-4.91l-1.458-3.788h-3.571l-1.462,3.788c-0.948,2.462-3.047,4.302-5.609,4.91 c-3.929,0.934-7.661,2.481-11.109,4.599c-2.241,1.392-5.033,1.585-7.444,0.505l-3.707-1.651l-2.529,2.528l1.646,3.722 c1.071,2.411,0.882,5.189-0.5,7.439c-2.118,3.439-3.67,7.18-4.608,11.099c-0.609,2.571-2.439,4.67-4.901,5.623l-3.788,1.448v3.58 l3.778,1.458c2.472,0.953,4.302,3.052,4.911,5.613c0.939,3.929,2.491,7.67,4.608,11.109c1.382,2.241,1.571,5.029,0.5,7.439 l-1.646,3.708l2.529,2.533l3.707-1.651c2.411-1.071,5.203-0.882,7.444,0.5c3.448,2.123,7.189,3.67,11.099,4.599 c2.571,0.613,4.67,2.453,5.618,4.91l1.462,3.793h3.571l1.458-3.783c0.953-2.467,3.047-4.297,5.618-4.91 c3.92-0.939,7.661-2.486,11.104-4.609c2.245-1.382,5.028-1.571,7.439-0.5l3.722,1.651l2.529-2.533l-1.651-3.708 c-1.071-2.41-0.892-5.198,0.49-7.439c2.127-3.448,3.67-7.189,4.609-11.109c0.609-2.561,2.453-4.66,4.911-5.613L391.408,214.753 L391.408,214.753z M402.281,198.224l-5.179-2.005c-0.873-2.689-1.963-5.307-3.25-7.826l2.259-5.071 c1.34-3.033,0.68-6.571-1.66-8.911l-10.288-10.288c-2.344-2.339-5.882-3.005-8.915-1.66l-5.066,2.25 c-2.528-1.283-5.142-2.373-7.83-3.241l-2-5.179c-1.189-3.094-4.151-5.132-7.462-5.132h-14.557c-3.311,0-6.278,2.038-7.472,5.132 l-1.991,5.179c-2.698,0.868-5.307,1.958-7.83,3.241l-5.08-2.25c-3.019-1.344-6.557-0.693-8.896,1.66l-10.302,10.288 c-2.34,2.34-3,5.878-1.66,8.911l2.259,5.071c-1.288,2.519-2.368,5.137-3.25,7.826l-5.179,2.005 c-3.089,1.179-5.118,4.146-5.118,7.458v14.562c0,3.311,2.029,6.278,5.118,7.467l5.179,1.99c0.873,2.689,1.962,5.312,3.25,7.84 l-2.259,5.071c-1.34,3.019-0.679,6.561,1.66,8.901l10.302,10.297c2.34,2.34,5.868,3,8.896,1.651l5.08-2.25 c2.524,1.292,5.142,2.368,7.83,3.25l1.991,5.179c1.193,3.081,4.16,5.118,7.472,5.118h14.557c3.311,0,6.274-2.038,7.462-5.118 l2-5.179c2.689-0.882,5.307-1.958,7.83-3.25l5.066,2.25c3.033,1.349,6.571,0.689,8.915-1.651l10.288-10.297 c2.34-2.34,3-5.882,1.66-8.901l-2.259-5.081c1.288-2.519,2.377-5.141,3.25-7.83l5.179-1.99c3.09-1.189,5.127-4.156,5.127-7.467 v-14.562C407.408,202.37,405.371,199.403,402.281,198.224L402.281,198.224z M273.612,421.452c1.208,2.368,1.156,5.189-0.132,7.519 l-22.859,41.143c-1.462,2.637-4.194,4.118-7,4.118c-1.311,0-2.651-0.321-3.882-1.009c-3.859-2.142-5.25-7.01-3.099-10.883 l8.802-15.835c-10.132,4.575-20.784,8.01-31.874,10.246c-9.849,1.99-19.76,2.971-29.6,2.971c-28.227,0-55.907-8.08-80.129-23.68 c-3.708-2.401-4.778-7.349-2.387-11.062c2.387-3.717,7.34-4.788,11.057-2.387c29.142,18.769,63.912,25.326,97.904,18.467 c11.208-2.259,21.916-5.887,32.015-10.831l-19.18-2.316c-4.387-0.533-7.509-4.524-6.977-8.901c0.528-4.392,4.519-7.51,8.896-6.991 l42.284,5.118C270.089,417.461,272.4,419.084,273.612,421.452L273.612,421.452z M355.36,390.824 c-11.807,0-21.42-9.613-21.42-21.411c0-11.812,9.613-21.42,21.42-21.42c11.812,0,21.411,9.608,21.411,21.42 C376.771,381.21,367.172,390.824,355.36,390.824L355.36,390.824z M355.36,331.992c-20.628,0-37.421,16.788-37.421,37.421 c0,20.628,16.793,37.407,37.421,37.407c20.633,0,37.412-16.779,37.412-37.407C392.772,348.78,375.993,331.992,355.36,331.992 L355.36,331.992z M179.662,324.044c-23.713,0-43.011-19.293-43.011-43.001c0-23.717,19.298-43.011,43.011-43.011 c23.718,0,43.006,19.293,43.006,43.011C222.667,304.75,203.379,324.044,179.662,324.044L179.662,324.044z M179.662,222.031 c-32.543,0-59.011,26.473-59.011,59.011c0,32.529,26.468,58.997,59.011,58.997c32.539,0,59.011-26.468,59.011-58.997 C238.673,248.504,212.2,222.031,179.662,222.031L179.662,222.031z M421.211,337.19c41.237,0,74.79-33.548,74.79-74.799 c0-33.638-22.741-63.327-55.289-72.191c-3.179-0.858-5.5-3.58-5.859-6.859c-6.132-56.619-53.761-99.328-110.8-99.328 c-12.92,0-25.581,2.189-37.624,6.509c-2.868,1.028-6.076,0.34-8.269-1.783c-23.298-22.548-54.001-34.968-86.431-34.968 c-68.549,0-124.31,55.77-124.31,124.319c0,2.311,0.071,4.731,0.212,7.18c0.189,3.41-1.802,6.571-4.958,7.859 c-28.355,11.614-46.671,38.803-46.671,69.262c0,41.251,33.548,74.799,74.79,74.799h2.392l4.887-11.029 c-3.387-6.128-6.08-12.609-8.01-19.34l-12.651-4.868c-3.08-1.189-5.118-4.16-5.118-7.462v-26.902c0-3.307,2.038-6.278,5.118-7.467 l12.651-4.873c1.929-6.717,4.623-13.199,8.019-19.326l-5.51-12.392c-1.34-3.028-0.679-6.571,1.661-8.911l19.019-19.019 c2.34-2.34,5.882-3,8.901-1.651l12.392,5.5c6.137-3.401,12.609-6.08,19.34-8.01l4.868-12.651c1.189-3.09,4.151-5.128,7.458-5.128 h26.902c3.311,0,6.279,2.038,7.472,5.128l4.859,12.651c6.731,1.929,13.208,4.609,19.34,8.01l12.392-5.5 c3.029-1.349,6.566-0.689,8.906,1.651l19.02,19.019c2.339,2.34,2.991,5.882,1.651,8.901l-5.5,12.387 c3.401,6.142,6.08,12.623,8.019,19.354l12.642,4.859c3.09,1.189,5.123,4.16,5.123,7.467v26.902c0,3.302-2.033,6.274-5.123,7.462 l-12.651,4.868c-1.929,6.722-4.618,13.198-8.01,19.331l4.901,11.038h30.279l-2.58-5.807c-1.34-3.033-0.679-6.571,1.66-8.911 l12.92-12.92c2.34-2.34,5.882-3,8.901-1.651l7.269,3.231c3.623-1.92,7.401-3.491,11.302-4.694l2.859-7.42 c1.189-3.076,4.151-5.118,7.462-5.118h18.269c3.307,0,6.278,2.043,7.467,5.118l2.854,7.42c3.906,1.203,7.689,2.774,11.307,4.694 l7.269-3.231c3.019-1.349,6.562-0.689,8.901,1.651l12.92,12.92c2.34,2.34,3,5.878,1.66,8.911l-2.59,5.807H421.211L421.211,337.19z M414.871,373.054v-7.293l-6.061-2.33c-2.462-0.948-4.297-3.047-4.911-5.609c-1.217-5.142-3.25-10.033-6.029-14.538 c-1.382-2.24-1.571-5.033-0.49-7.443l2.632-5.939l-5.151-5.151l-5.939,2.642c-2.411,1.071-5.203,0.882-7.444-0.5 c-4.51-2.774-9.397-4.802-14.529-6.019c-2.571-0.613-4.67-2.453-5.618-4.911l-2.33-6.062h-7.293l-2.33,6.062 c-0.948,2.458-3.047,4.297-5.609,4.911c-5.128,1.217-10.019,3.245-14.529,6.019c-2.25,1.382-5.029,1.571-7.439,0.5l-5.944-2.642 l-5.16,5.151l2.642,5.939c1.071,2.42,0.892,5.203-0.5,7.453c-2.769,4.496-4.802,9.387-6.019,14.529 c-0.608,2.561-2.453,4.661-4.91,5.609l-6.061,2.33v7.293l6.061,2.326c2.458,0.953,4.302,3.052,4.91,5.613 c1.217,5.137,3.25,10.028,6.019,14.538c1.392,2.241,1.571,5.033,0.5,7.439l-2.642,5.939l5.16,5.151l5.944-2.642 c2.41-1.066,5.189-0.877,7.439,0.505c4.509,2.778,9.401,4.797,14.529,6.019c2.561,0.608,4.66,2.448,5.609,4.91l2.34,6.057h7.283 l2.33-6.047c0.948-2.472,3.047-4.302,5.618-4.91c5.142-1.231,10.019-3.25,14.529-6.029c2.241-1.382,5.033-1.571,7.444-0.505 l5.939,2.642l5.151-5.151l-2.642-5.948c-1.071-2.41-0.882-5.189,0.5-7.439c2.779-4.5,4.811-9.392,6.029-14.519 c0.613-2.571,2.439-4.67,4.911-5.623L414.871,373.054L414.871,373.054z M244.961,328.902c-1.071-2.411-0.882-5.189,0.5-7.439 c4.297-6.972,7.43-14.543,9.321-22.491c0.618-2.561,2.448-4.67,4.906-5.609l11.345-4.373v-15.906l-11.331-4.363 c-2.462-0.948-4.302-3.052-4.91-5.618c-1.892-7.953-5.033-15.519-9.331-22.491c-1.382-2.25-1.571-5.038-0.5-7.448l4.939-11.113 l-11.25-11.25l-11.118,4.944c-2.41,1.071-5.198,0.877-7.439-0.5c-6.981-4.302-14.552-7.443-22.491-9.331 c-2.571-0.613-4.67-2.439-5.618-4.91l-4.363-11.34h-15.911l-4.368,11.34c-0.948,2.472-3.052,4.297-5.609,4.91 c-7.953,1.887-15.524,5.028-22.501,9.331c-2.24,1.377-5.033,1.571-7.443,0.5l-11.109-4.944l-11.26,11.25l4.939,11.123 c1.071,2.411,0.892,5.189-0.495,7.439c-4.293,6.972-7.434,14.538-9.321,22.491c-0.609,2.566-2.453,4.67-4.911,5.618l-11.34,4.363 v15.906l11.34,4.373c2.458,0.939,4.288,3.038,4.897,5.609c1.901,7.948,5.033,15.519,9.335,22.5 c1.377,2.241,1.566,5.029,0.495,7.439l-4.939,11.109l11.26,11.25l11.109-4.929c2.424-1.08,5.203-0.892,7.443,0.491 c6.977,4.302,14.548,7.439,22.501,9.331c2.557,0.608,4.66,2.448,5.609,4.91l4.368,11.34h15.911l4.363-11.34 c0.948-2.462,3.047-4.302,5.609-4.91c7.958-1.892,15.529-5.028,22.501-9.321c2.245-1.377,5.028-1.571,7.439-0.5l11.118,4.929 l11.25-11.25L244.961,328.902L244.961,328.902z M512.001,262.391c0-39.039-25.199-73.677-61.931-86.05 c-4.368-29.01-18.67-55.648-40.619-75.478c-23.454-21.18-53.78-32.85-85.398-32.85c-13.114,0-25.992,1.981-38.355,5.877 c-25.826-23.331-59.006-36.119-93.969-36.119c-77.37,0-140.31,62.95-140.31,140.32c0,0.83,0,1.679,0.023,2.543 c-31.43,15.147-51.44,46.657-51.44,81.757c0,50.072,40.727,90.8,90.79,90.8h9.17l13.288,13.284c2.34,2.34,5.882,3,8.901,1.66 l12.392-5.509c6.137,3.396,12.609,6.09,19.34,8.019l4.868,12.637c1.189,3.09,4.151,5.132,7.458,5.132h26.902 c3.311,0,6.279-2.043,7.472-5.132l4.859-12.637c6.731-1.929,13.208-4.623,19.34-8.019l12.392,5.509 c3.029,1.34,6.566,0.68,8.906-1.66l13.283-13.284h24.807c-2.632,1.363-4.321,4.071-4.321,7.08v18.269 c0,3.311,2.042,6.283,5.132,7.472l7.411,2.849c1.198,3.91,2.769,7.694,4.689,11.311l-3.231,7.26 c-1.34,3.028-0.679,6.571,1.66,8.911l12.92,12.92c2.34,2.34,5.882,2.991,8.901,1.651l7.269-3.231 c3.623,1.92,7.401,3.491,11.302,4.689l2.859,7.42c1.189,3.089,4.151,5.118,7.462,5.118h18.269c3.307,0,6.278-2.028,7.467-5.118 l2.854-7.411c3.906-1.208,7.689-2.779,11.307-4.689l7.269,3.221c3.019,1.349,6.562,0.689,8.901-1.651l12.92-12.92 c2.34-2.34,3-5.882,1.651-8.911l-3.222-7.26c1.911-3.618,3.481-7.401,4.689-11.311l7.411-2.849c3.09-1.189,5.132-4.16,5.132-7.472 v-18.269c0-3.118-1.83-5.92-4.623-7.231C473.981,350.422,512.001,310.77,512.001,262.391z" clip-rule="evenodd"/></svg>