<svg xmlns="http://www.w3.org/2000/svg" viewBox="0 0 512 512"><g data-name="23. Writing"><path fill="#e0c3aa" d="M264,296a56,56,0,0,0-56-56H128L71.9,324.15A53.1,53.1,0,0,1,8,344L80,192l125.48-48.8A105.91,105.91,0,0,1,296.42,150L362,187.45A56.56,56.56,0,0,0,408,192V336"/><rect width="64" height="208" x="440" y="160" fill="#596060"/><rect width="64" height="24" x="440" y="344" fill="#4c5657"/><path d="M504,376H440a8,8,0,0,1-8-8V160a8,8,0,0,1,8-8h64a8,8,0,0,1,0,16H448V360h56a8,8,0,0,1,0,16Z"/><rect width="32" height="176" x="408" y="176" fill="#eaf2ff"/><rect width="32" height="24" x="408" y="328" fill="#c1d1f7"/><path d="M440,360H408a8,8,0,0,1-8-8V176a8,8,0,0,1,8-8h32a8,8,0,0,1,8,8V352A8,8,0,0,1,440,360Zm-24-16h16V184H416Z"/><path d="M408 344a8 8 0 01-8-8V202.14a64.63 64.63 0 01-41.93-7.75L292.45 156.9a97.92 97.92 0 00-84.07-6.24L178.9 162.12a8 8 0 11-5.8-14.91l29.48-11.46A113.92 113.92 0 01300.39 143L366 180.5a48.62 48.62 0 0039.47 3.91A8 8 0 01416 192V336A8 8 0 01408 344zM5 351.43A8 8 0 01.77 340.58l72-152a8 8 0 014.33-4l56-21.77a8 8 0 115.8 14.91l-53 20.62L19.23 339a45.34 45.34 0 0046-19.26l56.1-84.16A8 8 0 01128 232h80a64.07 64.07 0 0164 64 8 8 0 01-16 0 48.05 48.05 0 00-48-48H132.28L78.55 328.59A61.38 61.38 0 015 351.43z"/><rect width="360" height="48" x="-46.96" y="250.42" fill="#cd4f5f" transform="rotate(-60.25 133.024 274.402)"/><polygon fill="#b24654" points="227.6 121.13 49.55 432.6 23.49 417.7 22.88 418.78 64.55 442.6 243.21 130.06 227.6 121.13"/><path d="M60.58,449.54,18.91,425.72a8,8,0,0,1-3-10.91L194.59,102.27a8,8,0,0,1,10.92-3l41.67,23.82a8,8,0,0,1,3,10.92L71.5,446.57A8,8,0,0,1,60.58,449.54ZM33.79,415.8l27.79,15.88L232.3,133l-27.79-15.88Z"/><polygon fill="#a6806f" points="22.88 418.78 15.92 479.3 64.55 442.6 22.88 418.78"/><path d="M8,478.39l7-60.53a8,8,0,0,1,11.92-6l41.67,23.82A8,8,0,0,1,69.37,449L20.74,485.69A8,8,0,0,1,8,478.39Zm21.46-46.65L26,461.67l24-18.15Z"/><path fill="#596060" d="M262.08,48.7a24,24,0,0,0-32.75,8.92L217.42,78.46l41.67,23.82L271,81.44A24,24,0,0,0,262.08,48.7Z"/><path fill="#4c5657" d="M248.14,45.62A24,24,0,0,1,253,75.44L242.94,93l16.15,9.24L271,81.44C280.6,64.65,267.34,44,248.14,45.62Z"/><path d="M255.12,109.22,213.45,85.4a8,8,0,0,1-3-10.91l11.92-20.84A32,32,0,1,1,278,85.41L266,106.25A8,8,0,0,1,255.12,109.22ZM228.34,75.48l27.78,15.88,7.94-13.89a16,16,0,0,0-5.95-21.83h0a16,16,0,0,0-21.83,6Z"/><rect width="48" height="32" x="206.32" y="88.26" fill="#f6f6f6" transform="rotate(29.75 230.353 104.287)"/><polygon fill="#c1d1f7" points="217.42 78.46 215.57 81.69 241.09 96.28 227.06 120.83 243.21 130.06 259.09 102.28 217.42 78.46"/><path fill="#e0c3aa" d="M408,336H384l-26.9,19.21a111.59,111.59,0,0,1-84.78,19c-12.47-2.26-16.83-4.41-50.74-17.12A80.15,80.15,0,0,0,193.49,352H120V336a40,40,0,0,1,40-40H264"/><path fill="#d0a37f" d="M400,320v16H384l-26.9,19.21a111.58,111.58,0,0,1-104,13.68l-31.47-11.8A80.15,80.15,0,0,0,193.49,352H120c0-16.51-.25-18.77.8-24h72.69a80.15,80.15,0,0,1,28.09,5.09l31.47,11.8A111.57,111.57,0,0,0,357.1,331.21l8.54-8.79a8,8,0,0,1,5.74-2.42Z"/><path d="M239.24 137l-41.67-23.82a8 8 0 01-3-10.91l15.88-27.78a8 8 0 0110.92-3l41.67 23.82a8 8 0 013 10.92L250.16 134A8 8 0 01239.24 137zm-26.79-33.74l27.79 15.88 7.94-13.89L220.4 89.37zM250.24 376.39l-31.47-11.81A71.76 71.76 0 00193.49 360H120a8 8 0 01-8-8V336a48.05 48.05 0 0148-48H264a8 8 0 010 16H160a32 32 0 00-32 32v8h65.49a87.86 87.86 0 0130.9 5.6l31.47 11.8a103.46 103.46 0 0096.59-12.7l26.9-19.21A8 8 0 01384 328h24a8 8 0 010 16H386.56l-24.81 17.72A119.47 119.47 0 01250.24 376.39z"/></g></svg>